<mxfile host="app.diagrams.net" modified="2022-12-18T20:29:14.203Z" agent="5.0 (X11; Linux x86_64) AppleWebKit/537.36 (KHTML, like Gecko) Chrome/108.0.0.0 Safari/537.36" version="20.7.4" etag="2ZsE3Zvp6ViaG2gOLisv" type="github">
  <diagram id="shVZ3P4QohRRA6nQYJaO" name="Página-1">
    <mxGraphModel dx="2074" dy="765" grid="1" gridSize="10" guides="1" tooltips="1" connect="1" arrows="1" fold="1" page="1" pageScale="1" pageWidth="827" pageHeight="1169" math="0" shadow="0">
      <root>
        <mxCell id="0" />
        <mxCell id="1" parent="0" />
        <mxCell id="8YgTwWKfVC9tz2BtTw79-13" style="edgeStyle=orthogonalEdgeStyle;rounded=0;orthogonalLoop=1;jettySize=auto;html=1;exitX=0.5;exitY=1;exitDx=0;exitDy=0;exitPerimeter=0;entryX=0.5;entryY=0;entryDx=0;entryDy=0;" edge="1" parent="1" source="8YgTwWKfVC9tz2BtTw79-12" target="8YgTwWKfVC9tz2BtTw79-5">
          <mxGeometry relative="1" as="geometry" />
        </mxCell>
        <mxCell id="8YgTwWKfVC9tz2BtTw79-12" value="" style="shape=card;whiteSpace=wrap;html=1;fillColor=#f5f5f5;strokeColor=#666666;fontColor=#333333;" vertex="1" parent="1">
          <mxGeometry x="120" y="140" width="660" height="400" as="geometry" />
        </mxCell>
        <mxCell id="8YgTwWKfVC9tz2BtTw79-8" style="edgeStyle=orthogonalEdgeStyle;rounded=0;orthogonalLoop=1;jettySize=auto;html=1;exitX=1;exitY=0.5;exitDx=0;exitDy=0;entryX=0.5;entryY=0;entryDx=0;entryDy=0;" edge="1" parent="1" source="8YgTwWKfVC9tz2BtTw79-1" target="8YgTwWKfVC9tz2BtTw79-2">
          <mxGeometry relative="1" as="geometry" />
        </mxCell>
        <mxCell id="8YgTwWKfVC9tz2BtTw79-1" value="Conocimiento científico" style="ellipse;whiteSpace=wrap;html=1;" vertex="1" parent="1">
          <mxGeometry x="360" y="160" width="180" height="80" as="geometry" />
        </mxCell>
        <mxCell id="8YgTwWKfVC9tz2BtTw79-9" style="edgeStyle=orthogonalEdgeStyle;rounded=0;orthogonalLoop=1;jettySize=auto;html=1;exitX=0.5;exitY=1;exitDx=0;exitDy=0;entryX=1;entryY=0.5;entryDx=0;entryDy=0;" edge="1" parent="1" source="8YgTwWKfVC9tz2BtTw79-2" target="8YgTwWKfVC9tz2BtTw79-3">
          <mxGeometry relative="1" as="geometry" />
        </mxCell>
        <mxCell id="8YgTwWKfVC9tz2BtTw79-2" value="Conocimiento tecnológico" style="ellipse;whiteSpace=wrap;html=1;" vertex="1" parent="1">
          <mxGeometry x="560" y="280" width="180" height="80" as="geometry" />
        </mxCell>
        <mxCell id="8YgTwWKfVC9tz2BtTw79-11" style="edgeStyle=orthogonalEdgeStyle;rounded=0;orthogonalLoop=1;jettySize=auto;html=1;exitX=0;exitY=0.5;exitDx=0;exitDy=0;entryX=0.5;entryY=1;entryDx=0;entryDy=0;" edge="1" parent="1" source="8YgTwWKfVC9tz2BtTw79-3" target="8YgTwWKfVC9tz2BtTw79-4">
          <mxGeometry relative="1" as="geometry" />
        </mxCell>
        <mxCell id="8YgTwWKfVC9tz2BtTw79-3" value="Conocimiento empírico" style="ellipse;whiteSpace=wrap;html=1;" vertex="1" parent="1">
          <mxGeometry x="360" y="440" width="180" height="80" as="geometry" />
        </mxCell>
        <mxCell id="8YgTwWKfVC9tz2BtTw79-10" style="edgeStyle=orthogonalEdgeStyle;rounded=0;orthogonalLoop=1;jettySize=auto;html=1;exitX=0.5;exitY=0;exitDx=0;exitDy=0;entryX=0;entryY=0.5;entryDx=0;entryDy=0;" edge="1" parent="1" source="8YgTwWKfVC9tz2BtTw79-4" target="8YgTwWKfVC9tz2BtTw79-1">
          <mxGeometry relative="1" as="geometry" />
        </mxCell>
        <mxCell id="8YgTwWKfVC9tz2BtTw79-4" value="Conocimiento técnico" style="ellipse;whiteSpace=wrap;html=1;" vertex="1" parent="1">
          <mxGeometry x="160" y="280" width="180" height="80" as="geometry" />
        </mxCell>
        <mxCell id="8YgTwWKfVC9tz2BtTw79-5" value="&lt;font style=&quot;font-size: 23px;&quot; face=&quot;Garamond&quot;&gt;Nuevas tecnologías&lt;/font&gt;" style="ellipse;whiteSpace=wrap;html=1;fillColor=#ffe6cc;strokeColor=#d79b00;" vertex="1" parent="1">
          <mxGeometry x="310" y="640" width="280" height="80" as="geometry" />
        </mxCell>
      </root>
    </mxGraphModel>
  </diagram>
</mxfile>
